<?xml version="1.0" encoding="UTF-8" standalone="no"?>
<!DOCTYPE score-partwise PUBLIC "-//Recordare//DTD MusicXML 3.1 Partwise//EN" "http://www.musicxml.org/dtds/partwise.dtd">
<score-partwise version="3.1">
  <movement-title>HahnGiguePartita2.mp3</movement-title>
  <identification>
    <creator type="composer"></creator>
    <encoding>
      <software>ScoreCloud Studio 4.7.8</software>
    </encoding>
  </identification>
  <part-list>
    <score-part id="P0">
      <part-name></part-name>
    </score-part>
  </part-list>
  <!--=========================================================-->
  <part id="P0">
    <!--=======================================================-->
    <measure number="1">
      <attributes>
        <divisions>1024</divisions>
        <key>
          <fifths>-1</fifths>
        </key>
        <time>
          <beats>3</beats>
          <beat-type>8</beat-type>
        </time>
        <staves>1</staves>
        <clef number="1">
          <sign>G</sign>
          <line>2</line>
        </clef>
      </attributes>
      <direction directive="yes" placement="above">
        <direction-type>
          <metronome>
            <beat-unit>quarter</beat-unit>
            <per-minute>116</per-minute>
          </metronome>
        </direction-type>
        <sound tempo="116"/>
      </direction>
      <note>
        <rest/>
        <duration>512</duration>
        <voice>1</voice>
        <type>eighth</type>
        <staff>1</staff>
      </note>
      <note>
        <rest/>
        <duration>512</duration>
        <voice>1</voice>
        <type>eighth</type>
        <staff>1</staff>
      </note>
      <note dynamics="104">
        <pitch>
          <step>A</step>
          <octave>4</octave>
        </pitch>
        <duration>512</duration>
        <voice>1</voice>
        <type>eighth</type>
        <staff>1</staff>
      </note>
    </measure>
    <!--=======================================================-->
    <measure number="2">
      <note dynamics="110">
        <pitch>
          <step>D</step>
          <octave>4</octave>
        </pitch>
        <duration>512</duration>
        <voice>1</voice>
        <type>eighth</type>
        <staff>1</staff>
        <notations>
          <slur type="start"/>
        </notations>
      </note>
      <note dynamics="104">
        <pitch>
          <step>F</step>
          <octave>4</octave>
        </pitch>
        <duration>512</duration>
        <voice>1</voice>
        <type>eighth</type>
        <staff>1</staff>
        <notations>
          <slur type="stop"/>
        </notations>
      </note>
      <note dynamics="107">
        <pitch>
          <step>A</step>
          <octave>4</octave>
        </pitch>
        <duration>512</duration>
        <voice>1</voice>
        <type>eighth</type>
        <staff>1</staff>
      </note>
    </measure>
    <!--=======================================================-->
    <measure number="3">
      <note dynamics="101">
        <pitch>
          <step>D</step>
          <octave>5</octave>
        </pitch>
        <duration>512</duration>
        <voice>1</voice>
        <type>eighth</type>
        <staff>1</staff>
        <notations>
          <slur type="start"/>
        </notations>
      </note>
      <note dynamics="89">
        <pitch>
          <step>E</step>
          <octave>5</octave>
        </pitch>
        <duration>512</duration>
        <voice>1</voice>
        <type>eighth</type>
        <staff>1</staff>
        <notations>
          <slur type="stop"/>
        </notations>
      </note>
      <note dynamics="104">
        <pitch>
          <step>F</step>
          <octave>5</octave>
        </pitch>
        <duration>512</duration>
        <voice>1</voice>
        <type>eighth</type>
        <staff>1</staff>
      </note>
    </measure>
    <!--=======================================================-->
    <measure number="4">
      <note dynamics="102">
        <pitch>
          <step>E</step>
          <octave>5</octave>
        </pitch>
        <duration>512</duration>
        <voice>1</voice>
        <type>eighth</type>
        <staff>1</staff>
      </note>
      <note dynamics="98">
        <pitch>
          <step>G</step>
          <octave>5</octave>
        </pitch>
        <duration>256</duration>
        <voice>1</voice>
        <type>16th</type>
        <staff>1</staff>
        <beam number="2">begin</beam>
        <notations>
          <slur type="start"/>
        </notations>
      </note>
      <note dynamics="101">
        <pitch>
          <step>F</step>
          <octave>5</octave>
        </pitch>
        <duration>256</duration>
        <voice>1</voice>
        <type>16th</type>
        <staff>1</staff>
        <beam number="2">end</beam>
      </note>
      <note dynamics="98">
        <pitch>
          <step>E</step>
          <octave>5</octave>
        </pitch>
        <duration>256</duration>
        <voice>1</voice>
        <type>16th</type>
        <staff>1</staff>
        <beam number="2">begin</beam>
      </note>
      <note dynamics="91">
        <pitch>
          <step>D</step>
          <octave>5</octave>
        </pitch>
        <duration>256</duration>
        <voice>1</voice>
        <type>16th</type>
        <staff>1</staff>
        <beam number="2">end</beam>
        <notations>
          <slur type="stop"/>
        </notations>
      </note>
    </measure>
    <!--=======================================================-->
    <measure number="5">
      <note dynamics="101">
        <pitch>
          <step>C</step>
          <alter>1</alter>
          <octave>5</octave>
        </pitch>
        <duration>512</duration>
        <voice>1</voice>
        <type>eighth</type>
        <accidental>sharp</accidental>
        <staff>1</staff>
        <notations>
          <slur type="start"/>
        </notations>
      </note>
      <note dynamics="93">
        <pitch>
          <step>A</step>
          <octave>4</octave>
        </pitch>
        <duration>512</duration>
        <voice>1</voice>
        <type>eighth</type>
        <staff>1</staff>
        <notations>
          <slur type="stop"/>
        </notations>
      </note>
      <note dynamics="108">
        <pitch>
          <step>E</step>
          <octave>4</octave>
        </pitch>
        <duration>512</duration>
        <voice>1</voice>
        <type>eighth</type>
        <staff>1</staff>
      </note>
    </measure>
    <!--=======================================================-->
    <measure number="6">
      <note dynamics="110">
        <pitch>
          <step>C</step>
          <alter>1</alter>
          <octave>4</octave>
        </pitch>
        <duration>512</duration>
        <voice>1</voice>
        <type>eighth</type>
        <accidental>sharp</accidental>
        <staff>1</staff>
        <notations>
          <slur type="start"/>
        </notations>
      </note>
      <note dynamics="94">
        <pitch>
          <step>E</step>
          <octave>4</octave>
        </pitch>
        <duration>512</duration>
        <voice>1</voice>
        <type>eighth</type>
        <staff>1</staff>
        <notations>
          <slur type="stop"/>
        </notations>
      </note>
      <note dynamics="89">
        <pitch>
          <step>A</step>
          <octave>4</octave>
        </pitch>
        <duration>512</duration>
        <voice>1</voice>
        <type>eighth</type>
        <staff>1</staff>
      </note>
    </measure>
    <!--=======================================================-->
    <measure number="7">
      <note dynamics="87">
        <pitch>
          <step>E</step>
          <octave>5</octave>
        </pitch>
        <duration>512</duration>
        <voice>1</voice>
        <type>eighth</type>
        <staff>1</staff>
        <notations>
          <slur type="start"/>
        </notations>
      </note>
      <note dynamics="85">
        <pitch>
          <step>F</step>
          <octave>5</octave>
        </pitch>
        <duration>512</duration>
        <voice>1</voice>
        <type>eighth</type>
        <staff>1</staff>
        <notations>
          <slur type="stop"/>
        </notations>
      </note>
      <note dynamics="84">
        <pitch>
          <step>G</step>
          <octave>5</octave>
        </pitch>
        <duration>512</duration>
        <voice>1</voice>
        <type>eighth</type>
        <staff>1</staff>
      </note>
    </measure>
    <!--=======================================================-->
    <measure number="8">
      <note dynamics="95">
        <pitch>
          <step>F</step>
          <octave>5</octave>
        </pitch>
        <duration>512</duration>
        <voice>1</voice>
        <type>eighth</type>
        <staff>1</staff>
      </note>
      <note dynamics="87">
        <pitch>
          <step>A</step>
          <octave>5</octave>
        </pitch>
        <duration>256</duration>
        <voice>1</voice>
        <type>16th</type>
        <staff>1</staff>
        <beam number="2">begin</beam>
      </note>
      <note dynamics="91">
        <pitch>
          <step>G</step>
          <octave>5</octave>
        </pitch>
        <duration>256</duration>
        <voice>1</voice>
        <type>16th</type>
        <staff>1</staff>
        <beam number="2">end</beam>
      </note>
      <note dynamics="98">
        <pitch>
          <step>F</step>
          <octave>5</octave>
        </pitch>
        <duration>256</duration>
        <voice>1</voice>
        <type>16th</type>
        <staff>1</staff>
        <beam number="2">begin</beam>
      </note>
      <note dynamics="97">
        <pitch>
          <step>E</step>
          <octave>5</octave>
        </pitch>
        <duration>256</duration>
        <voice>1</voice>
        <type>16th</type>
        <staff>1</staff>
        <beam number="2">end</beam>
      </note>
    </measure>
    <!--=======================================================-->
    <measure number="9">
      <note dynamics="95">
        <pitch>
          <step>D</step>
          <octave>5</octave>
        </pitch>
        <duration>512</duration>
        <voice>1</voice>
        <type>eighth</type>
        <staff>1</staff>
        <notations>
          <slur type="start"/>
        </notations>
      </note>
      <note dynamics="90">
        <pitch>
          <step>A</step>
          <octave>4</octave>
        </pitch>
        <duration>512</duration>
        <voice>1</voice>
        <type>eighth</type>
        <staff>1</staff>
        <notations>
          <slur type="stop"/>
        </notations>
      </note>
      <note dynamics="93">
        <pitch>
          <step>F</step>
          <octave>4</octave>
        </pitch>
        <duration>512</duration>
        <voice>1</voice>
        <type>eighth</type>
        <staff>1</staff>
      </note>
    </measure>
    <!--=======================================================-->
    <measure number="10">
      <note dynamics="105">
        <pitch>
          <step>D</step>
          <octave>4</octave>
        </pitch>
        <duration>512</duration>
        <voice>1</voice>
        <type>eighth</type>
        <staff>1</staff>
      </note>
      <note dynamics="94">
        <pitch>
          <step>F</step>
          <octave>5</octave>
        </pitch>
        <duration>256</duration>
        <voice>1</voice>
        <type>16th</type>
        <staff>1</staff>
        <beam number="2">begin</beam>
      </note>
      <note dynamics="94">
        <pitch>
          <step>E</step>
          <octave>5</octave>
        </pitch>
        <duration>256</duration>
        <voice>1</voice>
        <type>16th</type>
        <staff>1</staff>
        <beam number="2">end</beam>
      </note>
      <note dynamics="89">
        <pitch>
          <step>D</step>
          <octave>5</octave>
        </pitch>
        <duration>256</duration>
        <voice>1</voice>
        <type>16th</type>
        <staff>1</staff>
        <beam number="2">begin</beam>
      </note>
      <note dynamics="90">
        <pitch>
          <step>F</step>
          <octave>5</octave>
        </pitch>
        <duration>256</duration>
        <voice>1</voice>
        <type>16th</type>
        <staff>1</staff>
        <beam number="2">end</beam>
      </note>
    </measure>
    <!--=======================================================-->
    <measure number="11">
      <note dynamics="86">
        <pitch>
          <step>B</step>
          <alter>-1</alter>
          <octave>5</octave>
        </pitch>
        <duration>256</duration>
        <voice>1</voice>
        <type>16th</type>
        <staff>1</staff>
        <beam number="2">begin</beam>
      </note>
      <note dynamics="94">
        <pitch>
          <step>A</step>
          <octave>5</octave>
        </pitch>
        <duration>256</duration>
        <voice>1</voice>
        <type>16th</type>
        <staff>1</staff>
        <beam number="2">end</beam>
      </note>
      <note dynamics="88">
        <pitch>
          <step>G</step>
          <octave>5</octave>
        </pitch>
        <duration>256</duration>
        <voice>1</voice>
        <type>16th</type>
        <staff>1</staff>
        <beam number="2">begin</beam>
      </note>
      <note dynamics="95">
        <pitch>
          <step>F</step>
          <octave>5</octave>
        </pitch>
        <duration>256</duration>
        <voice>1</voice>
        <type>16th</type>
        <staff>1</staff>
        <beam number="2">end</beam>
      </note>
      <note dynamics="94">
        <pitch>
          <step>E</step>
          <octave>5</octave>
        </pitch>
        <duration>256</duration>
        <voice>1</voice>
        <type>16th</type>
        <staff>1</staff>
        <beam number="2">begin</beam>
      </note>
      <note dynamics="92">
        <pitch>
          <step>D</step>
          <octave>5</octave>
        </pitch>
        <duration>256</duration>
        <voice>1</voice>
        <type>16th</type>
        <staff>1</staff>
        <beam number="2">end</beam>
      </note>
    </measure>
    <!--=======================================================-->
    <measure number="12">
      <note dynamics="103">
        <pitch>
          <step>C</step>
          <octave>5</octave>
        </pitch>
        <duration>256</duration>
        <voice>1</voice>
        <type>16th</type>
        <staff>1</staff>
        <beam number="2">begin</beam>
      </note>
      <note dynamics="95">
        <pitch>
          <step>D</step>
          <octave>5</octave>
        </pitch>
        <duration>256</duration>
        <voice>1</voice>
        <type>16th</type>
        <staff>1</staff>
        <beam number="2">end</beam>
      </note>
      <note dynamics="91">
        <pitch>
          <step>E</step>
          <octave>5</octave>
        </pitch>
        <duration>256</duration>
        <voice>1</voice>
        <type>16th</type>
        <staff>1</staff>
        <beam number="2">begin</beam>
      </note>
      <note dynamics="94">
        <pitch>
          <step>D</step>
          <octave>5</octave>
        </pitch>
        <duration>256</duration>
        <voice>1</voice>
        <type>16th</type>
        <staff>1</staff>
        <beam number="2">end</beam>
      </note>
      <note dynamics="96">
        <pitch>
          <step>C</step>
          <octave>5</octave>
        </pitch>
        <duration>256</duration>
        <voice>1</voice>
        <type>16th</type>
        <staff>1</staff>
        <beam number="2">begin</beam>
      </note>
      <note dynamics="90">
        <pitch>
          <step>E</step>
          <octave>5</octave>
        </pitch>
        <duration>256</duration>
        <voice>1</voice>
        <type>16th</type>
        <staff>1</staff>
        <beam number="2">end</beam>
      </note>
    </measure>
    <!--=======================================================-->
    <measure number="13">
      <note dynamics="94">
        <pitch>
          <step>A</step>
          <octave>5</octave>
        </pitch>
        <duration>256</duration>
        <voice>1</voice>
        <type>16th</type>
        <staff>1</staff>
        <beam number="2">begin</beam>
      </note>
      <note dynamics="91">
        <pitch>
          <step>G</step>
          <octave>5</octave>
        </pitch>
        <duration>256</duration>
        <voice>1</voice>
        <type>16th</type>
        <staff>1</staff>
        <beam number="2">end</beam>
      </note>
      <note dynamics="94">
        <pitch>
          <step>F</step>
          <octave>5</octave>
        </pitch>
        <duration>256</duration>
        <voice>1</voice>
        <type>16th</type>
        <staff>1</staff>
        <beam number="2">begin</beam>
      </note>
      <note dynamics="96">
        <pitch>
          <step>E</step>
          <octave>5</octave>
        </pitch>
        <duration>256</duration>
        <voice>1</voice>
        <type>16th</type>
        <staff>1</staff>
        <beam number="2">end</beam>
      </note>
      <note dynamics="87">
        <pitch>
          <step>D</step>
          <octave>5</octave>
        </pitch>
        <duration>256</duration>
        <voice>1</voice>
        <type>16th</type>
        <staff>1</staff>
        <beam number="2">begin</beam>
      </note>
      <note dynamics="94">
        <pitch>
          <step>C</step>
          <octave>5</octave>
        </pitch>
        <duration>256</duration>
        <voice>1</voice>
        <type>16th</type>
        <staff>1</staff>
        <beam number="2">end</beam>
      </note>
    </measure>
    <!--=======================================================-->
    <measure number="14">
      <note dynamics="101">
        <pitch>
          <step>B</step>
          <alter>-1</alter>
          <octave>4</octave>
        </pitch>
        <duration>256</duration>
        <voice>1</voice>
        <type>16th</type>
        <staff>1</staff>
        <beam number="2">begin</beam>
      </note>
      <note dynamics="90">
        <pitch>
          <step>C</step>
          <octave>5</octave>
        </pitch>
        <duration>256</duration>
        <voice>1</voice>
        <type>16th</type>
        <staff>1</staff>
        <beam number="2">end</beam>
      </note>
      <note dynamics="91">
        <pitch>
          <step>D</step>
          <octave>5</octave>
        </pitch>
        <duration>256</duration>
        <voice>1</voice>
        <type>16th</type>
        <staff>1</staff>
        <beam number="2">begin</beam>
      </note>
      <note dynamics="93">
        <pitch>
          <step>C</step>
          <octave>5</octave>
        </pitch>
        <duration>256</duration>
        <voice>1</voice>
        <type>16th</type>
        <staff>1</staff>
        <beam number="2">end</beam>
      </note>
      <note dynamics="91">
        <pitch>
          <step>B</step>
          <alter>-1</alter>
          <octave>4</octave>
        </pitch>
        <duration>256</duration>
        <voice>1</voice>
        <type>16th</type>
        <staff>1</staff>
        <beam number="2">begin</beam>
      </note>
      <note dynamics="91">
        <pitch>
          <step>D</step>
          <octave>5</octave>
        </pitch>
        <duration>256</duration>
        <voice>1</voice>
        <type>16th</type>
        <staff>1</staff>
        <beam number="2">end</beam>
      </note>
    </measure>
    <!--=======================================================-->
    <measure number="15">
      <note dynamics="90">
        <pitch>
          <step>G</step>
          <octave>5</octave>
        </pitch>
        <duration>256</duration>
        <voice>1</voice>
        <type>16th</type>
        <staff>1</staff>
        <beam number="2">begin</beam>
      </note>
      <note dynamics="90">
        <pitch>
          <step>F</step>
          <octave>5</octave>
        </pitch>
        <duration>256</duration>
        <voice>1</voice>
        <type>16th</type>
        <staff>1</staff>
        <beam number="2">end</beam>
      </note>
      <note dynamics="100">
        <pitch>
          <step>E</step>
          <octave>5</octave>
        </pitch>
        <duration>256</duration>
        <voice>1</voice>
        <type>16th</type>
        <staff>1</staff>
        <beam number="2">begin</beam>
      </note>
      <note dynamics="94">
        <pitch>
          <step>D</step>
          <octave>5</octave>
        </pitch>
        <duration>256</duration>
        <voice>1</voice>
        <type>16th</type>
        <staff>1</staff>
        <beam number="2">end</beam>
      </note>
      <note dynamics="94">
        <pitch>
          <step>C</step>
          <alter>1</alter>
          <octave>5</octave>
        </pitch>
        <duration>256</duration>
        <voice>1</voice>
        <type>16th</type>
        <accidental>sharp</accidental>
        <staff>1</staff>
        <beam number="2">begin</beam>
      </note>
      <note dynamics="95">
        <pitch>
          <step>B</step>
          <octave>4</octave>
        </pitch>
        <duration>256</duration>
        <voice>1</voice>
        <type>16th</type>
        <accidental>natural</accidental>
        <staff>1</staff>
        <beam number="2">end</beam>
      </note>
    </measure>
    <!--=======================================================-->
    <measure number="16">
      <note dynamics="102">
        <pitch>
          <step>A</step>
          <octave>4</octave>
        </pitch>
        <duration>256</duration>
        <voice>1</voice>
        <type>16th</type>
        <staff>1</staff>
        <beam number="2">begin</beam>
      </note>
      <note dynamics="92">
        <pitch>
          <step>B</step>
          <octave>4</octave>
        </pitch>
        <duration>256</duration>
        <voice>1</voice>
        <type>16th</type>
        <accidental>natural</accidental>
        <staff>1</staff>
        <beam number="2">end</beam>
      </note>
      <note dynamics="89">
        <pitch>
          <step>C</step>
          <alter>1</alter>
          <octave>5</octave>
        </pitch>
        <duration>256</duration>
        <voice>1</voice>
        <type>16th</type>
        <accidental>sharp</accidental>
        <staff>1</staff>
        <beam number="2">begin</beam>
      </note>
      <note dynamics="91">
        <pitch>
          <step>B</step>
          <octave>4</octave>
        </pitch>
        <duration>256</duration>
        <voice>1</voice>
        <type>16th</type>
        <staff>1</staff>
        <beam number="2">end</beam>
      </note>
      <note dynamics="93">
        <pitch>
          <step>A</step>
          <octave>4</octave>
        </pitch>
        <duration>256</duration>
        <voice>1</voice>
        <type>16th</type>
        <staff>1</staff>
        <beam number="2">begin</beam>
      </note>
      <note dynamics="95">
        <pitch>
          <step>C</step>
          <alter>1</alter>
          <octave>5</octave>
        </pitch>
        <duration>256</duration>
        <voice>1</voice>
        <type>16th</type>
        <staff>1</staff>
        <beam number="2">end</beam>
      </note>
    </measure>
    <!--=======================================================-->
    <measure number="17">
      <note dynamics="99">
        <pitch>
          <step>E</step>
          <octave>5</octave>
        </pitch>
        <duration>256</duration>
        <voice>1</voice>
        <type>16th</type>
        <staff>1</staff>
        <beam number="2">begin</beam>
      </note>
      <note dynamics="101">
        <pitch>
          <step>D</step>
          <octave>5</octave>
        </pitch>
        <duration>256</duration>
        <voice>1</voice>
        <type>16th</type>
        <staff>1</staff>
        <beam number="2">end</beam>
      </note>
      <note dynamics="94">
        <pitch>
          <step>C</step>
          <alter>1</alter>
          <octave>5</octave>
        </pitch>
        <duration>256</duration>
        <voice>1</voice>
        <type>16th</type>
        <accidental>sharp</accidental>
        <staff>1</staff>
        <beam number="2">begin</beam>
      </note>
      <note dynamics="92">
        <pitch>
          <step>B</step>
          <octave>4</octave>
        </pitch>
        <duration>256</duration>
        <voice>1</voice>
        <type>16th</type>
        <accidental>natural</accidental>
        <staff>1</staff>
        <beam number="2">end</beam>
      </note>
      <note dynamics="92">
        <pitch>
          <step>A</step>
          <octave>4</octave>
        </pitch>
        <duration>256</duration>
        <voice>1</voice>
        <type>16th</type>
        <staff>1</staff>
        <beam number="2">begin</beam>
      </note>
      <note dynamics="101">
        <pitch>
          <step>G</step>
          <octave>4</octave>
        </pitch>
        <duration>256</duration>
        <voice>1</voice>
        <type>16th</type>
        <staff>1</staff>
        <beam number="2">end</beam>
      </note>
    </measure>
    <!--=======================================================-->
    <measure number="18">
      <note dynamics="99">
        <pitch>
          <step>F</step>
          <octave>4</octave>
        </pitch>
        <duration>256</duration>
        <voice>1</voice>
        <type>16th</type>
        <staff>1</staff>
        <beam number="2">begin</beam>
      </note>
      <note dynamics="94">
        <pitch>
          <step>A</step>
          <octave>4</octave>
        </pitch>
        <duration>256</duration>
        <voice>1</voice>
        <type>16th</type>
        <staff>1</staff>
        <beam number="2">end</beam>
      </note>
      <note dynamics="98">
        <pitch>
          <step>G</step>
          <octave>4</octave>
        </pitch>
        <duration>256</duration>
        <voice>1</voice>
        <type>16th</type>
        <staff>1</staff>
        <beam number="2">begin</beam>
        <notations>
          <slur type="start"/>
        </notations>
      </note>
      <note dynamics="98">
        <pitch>
          <step>F</step>
          <octave>4</octave>
        </pitch>
        <duration>256</duration>
        <voice>1</voice>
        <type>16th</type>
        <staff>1</staff>
        <beam number="2">end</beam>
      </note>
      <note dynamics="91">
        <pitch>
          <step>E</step>
          <octave>4</octave>
        </pitch>
        <duration>256</duration>
        <voice>1</voice>
        <type>16th</type>
        <staff>1</staff>
        <beam number="2">begin</beam>
      </note>
      <note dynamics="99">
        <pitch>
          <step>D</step>
          <octave>4</octave>
        </pitch>
        <duration>256</duration>
        <voice>1</voice>
        <type>16th</type>
        <staff>1</staff>
        <beam number="2">end</beam>
        <notations>
          <slur type="stop"/>
        </notations>
      </note>
    </measure>
    <!--=======================================================-->
    <measure number="19">
      <note dynamics="101">
        <pitch>
          <step>A</step>
          <octave>3</octave>
        </pitch>
        <duration>512</duration>
        <voice>1</voice>
        <type>eighth</type>
        <staff>1</staff>
      </note>
      <note dynamics="92">
        <pitch>
          <step>D</step>
          <octave>5</octave>
        </pitch>
        <duration>512</duration>
        <voice>1</voice>
        <type>eighth</type>
        <staff>1</staff>
      </note>
      <note dynamics="91">
        <pitch>
          <step>C</step>
          <alter>1</alter>
          <octave>5</octave>
        </pitch>
        <duration>512</duration>
        <voice>1</voice>
        <type>eighth</type>
        <accidental>sharp</accidental>
        <staff>1</staff>
      </note>
    </measure>
    <!--=======================================================-->
    <measure number="20">
      <note dynamics="91">
        <pitch>
          <step>D</step>
          <octave>4</octave>
        </pitch>
        <duration>512</duration>
        <voice>1</voice>
        <type>eighth</type>
        <staff>1</staff>
      </note>
      <note>
        <rest/>
        <duration>512</duration>
        <voice>1</voice>
        <type>eighth</type>
        <staff>1</staff>
      </note>
      <note>
        <rest/>
        <duration>512</duration>
        <voice>1</voice>
        <type>eighth</type>
        <staff>1</staff>
      </note>
    </measure>
  </part>
</score-partwise>
