onset	offset	note	velocity	probability	sustain	articulation	power	release
0.138	0.254	69	57	1.000	0.990	0.404	0.506	0.577
0.451	0.486	69	66	1.000	0.838	0.394	0.647	0.066
0.451	0.753	62	82	1.000	0.997	0.640	0.652	0.574
0.974	0.985	62	63	1.000	0.589	0.295	0.701	0.048
0.753	0.985	65	77	1.000	0.995	0.619	0.598	0.378
0.997	1.276	69	73	1.000	0.963	0.523	0.630	0.496
1.276	1.566	74	68	1.000	0.987	0.430	0.648	0.217
1.543	1.752	76	57	1.000	0.885	0.280	0.632	0.167
1.786	2.042	77	57	1.000	0.979	0.332	0.569	0.220
2.065	2.320	76	57	1.000	0.975	0.271	0.638	0.173
2.332	2.355	79	48	1.000	0.893	0.203	0.560	0.007
2.355	2.471	79	48	1.000	0.918	0.151	0.615	0.248
2.483	2.599	77	62	1.000	0.967	0.405	0.585	0.285
2.611	2.715	76	61	1.000	0.933	0.291	0.683	0.291
2.715	2.820	74	61	1.000	0.949	0.373	0.598	0.375
2.831	3.098	73	74	1.000	0.978	0.409	0.757	0.313
3.122	3.354	69	53	1.000	0.916	0.226	0.623	0.271
3.365	3.598	64	64	1.000	0.945	0.349	0.662	0.160
3.632	3.899	61	72	1.000	0.984	0.426	0.721	0.228
3.923	4.143	64	52	1.000	0.937	0.223	0.602	0.147
4.178	4.410	69	53	1.000	0.948	0.267	0.576	0.211
4.445	4.712	76	61	1.000	0.960	0.279	0.692	0.180
4.712	4.956	77	55	1.000	0.937	0.302	0.576	0.230
5.211	5.478	77	62	1.000	0.967	0.368	0.619	0.297
5.490	5.583	81	55	1.000	0.930	0.286	0.589	0.353
5.594	5.734	79	61	1.000	0.942	0.339	0.632	0.342
5.745	5.861	77	63	1.000	0.983	0.375	0.629	0.330
5.861	5.989	76	66	1.000	0.987	0.344	0.697	0.282
6.129	6.175	76	52	1.000	0.631	0.231	0.588	0.025
6.001	6.233	74	63	1.000	0.979	0.347	0.659	0.150
6.291	6.500	69	58	1.000	0.895	0.254	0.669	0.256
6.523	6.779	65	61	1.000	0.974	0.348	0.620	0.329
6.512	6.779	77	56	1.000	0.841	0.291	0.599	0.228
6.779	7.057	62	68	1.000	0.943	0.390	0.689	0.288
7.081	7.185	77	54	1.000	0.944	0.292	0.567	0.218
7.208	7.313	76	62	1.000	0.933	0.315	0.667	0.236
7.336	7.440	74	55	1.000	0.907	0.229	0.647	0.272
7.464	7.615	77	54	1.000	0.908	0.276	0.576	0.199
7.591	7.707	82	53	1.000	0.921	0.259	0.581	0.281
7.719	7.847	81	65	1.000	0.975	0.389	0.645	0.329
7.847	7.963	79	57	1.000	0.943	0.298	0.614	0.267
7.975	8.102	77	60	1.000	0.987	0.380	0.576	0.364
8.114	8.218	76	66	1.000	0.985	0.402	0.647	0.339
8.242	8.358	74	58	1.000	0.985	0.280	0.637	0.380
8.358	8.497	72	77	1.000	0.990	0.502	0.722	0.309
8.497	8.625	74	64	1.000	0.960	0.369	0.640	0.306
8.636	8.741	76	59	1.000	0.973	0.306	0.632	0.261
8.764	8.868	74	65	1.000	0.979	0.368	0.669	0.349
8.880	8.985	72	65	1.000	0.967	0.381	0.655	0.330
9.019	9.124	76	56	1.000	0.972	0.272	0.615	0.318
9.136	9.240	81	61	1.000	0.963	0.324	0.636	0.340
9.263	9.379	79	61	1.000	0.944	0.373	0.593	0.337
9.379	9.507	77	63	1.000	0.982	0.397	0.606	0.288
9.519	9.635	76	69	1.000	0.986	0.400	0.697	0.258
9.646	9.774	74	55	1.000	0.916	0.268	0.603	0.284
9.762	9.879	72	60	1.000	0.973	0.309	0.643	0.351
9.890	9.995	70	65	1.000	0.940	0.399	0.636	0.261
10.018	10.146	72	60	1.000	0.944	0.359	0.592	0.260
10.146	10.273	74	59	1.000	0.963	0.372	0.560	0.302
10.273	10.389	72	62	1.000	0.969	0.375	0.613	0.311
10.389	10.517	70	57	1.000	0.942	0.322	0.580	0.332
10.517	10.633	74	54	1.000	0.949	0.293	0.564	0.306
10.645	10.749	79	58	1.000	0.952	0.351	0.576	0.338
10.773	10.900	77	56	1.000	0.973	0.314	0.569	0.286
10.912	11.028	76	69	1.000	0.981	0.414	0.686	0.341
11.040	11.156	74	64	1.000	0.974	0.375	0.635	0.364
11.156	11.260	73	66	1.000	0.935	0.310	0.743	0.319
11.272	11.399	71	58	1.000	0.972	0.279	0.646	0.344
11.399	11.504	69	73	1.000	0.962	0.454	0.708	0.318
11.516	11.643	71	59	1.000	0.873	0.299	0.643	0.257
11.643	11.759	73	58	1.000	0.960	0.292	0.629	0.297
11.771	11.899	71	60	1.000	0.938	0.335	0.616	0.284
11.899	12.003	69	67	1.000	0.944	0.349	0.707	0.286
12.026	12.131	73	62	1.000	0.979	0.331	0.660	0.348
12.142	12.270	76	60	1.000	0.980	0.357	0.600	0.302
12.259	12.375	74	68	1.000	0.956	0.477	0.601	0.230
12.398	12.514	73	66	1.000	0.974	0.382	0.669	0.296
12.514	12.630	71	58	1.000	0.966	0.318	0.609	0.288
12.653	12.746	69	58	1.000	0.914	0.265	0.659	0.307
12.769	12.897	67	67	1.000	0.981	0.426	0.640	0.343
12.897	13.025	65	66	1.000	0.961	0.407	0.641	0.310
13.025	13.164	69	64	1.000	0.941	0.361	0.660	0.381
13.164	13.269	67	65	1.000	0.981	0.423	0.610	0.448
13.280	13.396	65	67	1.000	0.976	0.389	0.669	0.339
13.396	13.524	64	66	1.000	0.946	0.366	0.674	0.377
13.524	13.652	62	65	1.000	0.929	0.350	0.685	0.284
13.663	13.884	57	72	1.000	0.943	0.426	0.716	0.087
13.977	14.232	74	57	1.000	0.965	0.244	0.663	0.223
14.244	14.546	73	56	1.000	0.961	0.234	0.649	0.206
14.581	15.091	62	62	1.000	0.977	0.257	0.720	0.182
