onset	offset	note	velocity	probability	sustain	articulation	power	release
0.138	0.324	69	64	1.000	0.997	0.541	0.481	0.547
0.451	0.753	62	76	1.000	0.999	0.556	0.644	0.546
0.730	0.974	65	58	1.000	0.961	0.378	0.549	0.171
1.276	1.299	62	61	1.000	0.758	0.255	0.720	0.296
1.032	1.601	69	60	1.000	0.964	0.277	0.679	0.139
1.276	1.601	74	58	1.000	0.951	0.274	0.649	0.141
1.624	1.868	76	50	1.000	0.933	0.208	0.585	0.196
1.902	2.135	77	44	1.000	0.959	0.184	0.522	0.218
2.146	2.425	76	63	1.000	0.923	0.311	0.687	0.148
2.460	2.564	79	55	1.000	0.874	0.229	0.640	0.231
2.576	2.704	77	60	1.000	0.925	0.391	0.559	0.305
2.704	2.820	76	63	1.000	0.967	0.294	0.704	0.347
2.820	2.947	74	62	1.000	0.963	0.341	0.636	0.276
2.982	3.226	73	59	1.000	0.899	0.216	0.717	0.138
3.261	3.493	69	52	1.000	0.912	0.196	0.638	0.173
3.818	4.132	61	58	1.000	0.947	0.226	0.692	0.101
4.074	4.364	64	58	1.000	0.954	0.220	0.696	0.123
4.399	4.654	69	49	1.000	0.970	0.163	0.613	0.167
4.666	4.979	76	56	1.000	0.912	0.228	0.657	0.195
5.223	5.455	79	51	1.000	0.892	0.170	0.648	0.149
5.467	5.792	77	55	1.000	0.914	0.225	0.652	0.143
5.780	5.885	81	49	1.000	0.888	0.201	0.585	0.255
5.896	6.024	79	63	1.000	0.894	0.302	0.703	0.235
6.059	6.129	77	56	1.000	0.884	0.201	0.685	0.252
6.140	6.291	76	62	1.000	0.952	0.283	0.696	0.231
6.303	6.523	74	63	1.000	0.904	0.317	0.676	0.163
6.593	6.825	69	52	1.000	0.941	0.158	0.674	0.227
6.860	7.173	65	53	1.000	0.956	0.206	0.636	0.207
7.162	7.661	62	64	1.000	0.979	0.275	0.733	0.078
7.673	7.789	76	61	1.000	0.915	0.280	0.696	0.203
7.800	7.905	74	58	1.000	0.860	0.260	0.667	0.270
8.102	8.300	82	52	1.000	0.896	0.214	0.612	0.176
8.427	8.509	79	55	1.000	0.859	0.241	0.626	0.210
8.543	8.660	77	62	1.000	0.883	0.242	0.749	0.180
8.671	8.776	76	53	1.000	0.890	0.213	0.623	0.228
8.822	8.927	74	56	1.000	0.895	0.201	0.689	0.198
8.961	9.101	72	49	1.000	0.885	0.177	0.598	0.247
9.136	9.228	74	55	1.000	0.898	0.253	0.619	0.272
9.252	9.391	76	60	1.000	0.931	0.323	0.635	0.181
9.519	9.612	72	62	1.000	0.913	0.304	0.688	0.289
9.623	9.751	76	64	1.000	0.943	0.327	0.691	0.241
9.960	10.076	79	55	1.000	0.879	0.270	0.612	0.211
10.111	10.204	77	54	1.000	0.922	0.252	0.606	0.237
10.238	10.331	76	61	1.000	0.920	0.276	0.694	0.217
10.366	10.459	74	61	1.000	0.867	0.232	0.741	0.284
10.471	10.587	72	63	1.000	0.897	0.274	0.724	0.198
10.622	10.714	76	53	1.000	0.614	0.222	0.615	0.070
10.645	10.738	70	55	1.000	0.865	0.220	0.656	0.227
10.761	10.889	72	61	1.000	0.851	0.302	0.667	0.206
10.912	11.005	74	59	1.000	0.918	0.281	0.652	0.227
11.028	11.132	72	64	1.000	0.952	0.356	0.659	0.272
11.144	11.260	70	61	1.000	0.891	0.272	0.695	0.208
11.272	11.388	74	60	1.000	0.939	0.257	0.700	0.208
11.434	11.585	79	62	1.000	0.932	0.247	0.733	0.216
11.585	11.701	77	58	1.000	0.908	0.276	0.648	0.215
11.736	11.841	76	52	1.000	0.916	0.257	0.575	0.248
11.852	11.968	74	61	1.000	0.902	0.264	0.705	0.258
12.108	12.235	71	55	1.000	0.920	0.257	0.616	0.243
12.270	12.410	69	59	1.000	0.805	0.213	0.729	0.202
12.572	12.665	73	60	1.000	0.909	0.293	0.664	0.242
12.688	12.769	71	50	1.000	0.781	0.205	0.595	0.281
12.793	12.909	69	57	1.000	0.874	0.251	0.655	0.272
12.909	13.036	73	60	1.000	0.969	0.354	0.596	0.226
13.083	13.234	76	53	1.000	0.915	0.223	0.624	0.186
13.257	13.362	74	63	1.000	0.957	0.371	0.627	0.280
13.396	13.489	73	61	1.000	0.957	0.315	0.656	0.261
13.501	13.605	71	60	1.000	0.947	0.323	0.636	0.245
13.629	13.733	69	60	1.000	0.959	0.329	0.620	0.282
13.745	13.861	67	63	1.000	0.942	0.301	0.695	0.366
13.896	14.070	65	66	1.000	0.954	0.340	0.703	0.181
14.070	14.209	69	66	1.000	0.929	0.328	0.713	0.208
14.221	14.337	67	56	1.000	0.966	0.181	0.710	0.270
14.325	14.430	65	66	1.000	0.926	0.338	0.707	0.229
14.418	14.523	64	63	1.000	0.908	0.285	0.720	0.275
14.523	14.662	62	67	1.000	0.941	0.320	0.750	0.314
14.685	14.975	57	64	1.000	0.944	0.297	0.717	0.103
15.091	15.312	74	56	1.000	0.914	0.217	0.669	0.123
15.068	15.370	57	69	1.000	0.940	0.343	0.751	0.080
15.684	16.160	62	58	1.000	0.964	0.193	0.730	0.172
