onset	offset	note	velocity	probability	sustain	articulation	power	release
0.138	0.474	69	76	1.000	0.993	0.710	0.488	0.152
0.474	0.486	69	56	1.000	0.709	0.245	0.641	0.110
0.474	0.730	62	81	1.000	0.996	0.602	0.686	0.453
0.718	0.950	65	78	1.000	0.997	0.648	0.587	0.196
0.974	1.136	62	62	1.000	0.612	0.270	0.713	0.050
0.985	1.229	69	73	1.000	0.983	0.465	0.689	0.261
1.241	1.461	74	71	1.000	0.983	0.437	0.685	0.258
1.461	1.694	76	63	1.000	0.929	0.391	0.605	0.229
1.717	1.949	77	56	1.000	0.948	0.310	0.586	0.181
1.717	1.972	74	57	1.000	0.771	0.206	0.696	0.175
1.949	2.193	76	56	1.000	0.985	0.280	0.602	0.208
2.193	2.297	79	54	1.000	0.919	0.307	0.553	0.250
2.309	2.402	77	62	1.000	0.957	0.407	0.575	0.271
2.390	2.495	76	63	1.000	0.931	0.313	0.692	0.293
2.506	2.634	74	57	1.000	0.935	0.323	0.581	0.237
2.646	2.855	73	58	1.000	0.866	0.238	0.678	0.159
2.889	3.098	69	63	1.000	0.933	0.307	0.689	0.198
3.133	3.354	64	59	1.000	0.950	0.307	0.629	0.162
3.400	3.505	61	62	1.000	0.723	0.228	0.753	0.065
3.621	3.853	64	62	1.000	0.929	0.291	0.696	0.225
3.865	4.097	69	56	1.000	0.941	0.276	0.607	0.185
4.097	4.329	76	60	1.000	0.940	0.296	0.656	0.156
4.097	4.561	69	48	1.000	0.919	0.149	0.617	0.151
4.341	4.573	77	54	1.000	0.919	0.220	0.641	0.195
4.573	4.770	79	51	1.000	0.912	0.156	0.653	0.184
4.793	5.037	77	63	1.000	0.963	0.436	0.559	0.253
5.026	5.153	81	59	1.000	0.948	0.295	0.638	0.256
5.177	5.258	79	64	1.000	0.878	0.350	0.659	0.285
5.269	5.374	77	57	1.000	0.905	0.269	0.630	0.300
5.374	5.478	76	71	1.000	0.968	0.352	0.769	0.299
5.490	5.734	74	60	1.000	0.955	0.277	0.672	0.310
5.745	5.885	76	61	1.000	0.737	0.249	0.713	0.087
5.745	5.943	69	57	1.000	0.928	0.246	0.661	0.208
5.966	6.129	65	58	1.000	0.934	0.275	0.650	0.146
6.175	6.419	62	68	1.000	0.964	0.369	0.717	0.258
6.535	6.651	76	60	1.000	0.931	0.333	0.625	0.222
6.639	6.732	62	57	1.000	0.697	0.198	0.710	0.109
6.651	6.779	74	59	1.000	0.935	0.249	0.687	0.293
6.767	6.883	77	66	1.000	0.950	0.385	0.668	0.257
6.895	6.988	82	55	1.000	0.854	0.237	0.635	0.235
7.011	7.115	81	61	1.000	0.963	0.301	0.661	0.272
7.127	7.208	79	56	1.000	0.897	0.234	0.648	0.255
7.243	7.336	77	64	1.000	0.931	0.304	0.706	0.256
7.336	7.440	76	66	1.000	0.940	0.382	0.663	0.249
7.429	7.557	74	60	1.000	0.918	0.263	0.687	0.258
7.557	7.649	72	62	1.000	0.946	0.321	0.665	0.322
7.661	7.789	74	63	1.000	0.964	0.323	0.676	0.291
7.789	7.916	76	59	1.000	0.915	0.321	0.611	0.241
7.905	8.009	74	63	1.000	0.957	0.293	0.702	0.305
8.021	8.114	72	69	1.000	0.946	0.392	0.702	0.343
8.125	8.253	76	69	1.000	0.960	0.390	0.698	0.202
8.253	8.346	81	61	1.000	0.907	0.281	0.688	0.299
8.358	8.462	79	62	1.000	0.932	0.300	0.687	0.287
8.474	8.567	77	62	1.000	0.907	0.357	0.634	0.255
8.578	8.694	76	61	1.000	0.909	0.259	0.707	0.250
8.718	8.799	74	64	1.000	0.955	0.307	0.707	0.401
8.799	8.915	72	72	1.000	0.972	0.416	0.732	0.297
8.927	9.031	70	61	1.000	0.869	0.270	0.697	0.243
9.147	9.252	74	67	1.000	0.974	0.367	0.703	0.319
9.263	9.356	72	68	1.000	0.967	0.385	0.697	0.317
9.368	9.472	70	57	1.000	0.896	0.304	0.602	0.239
9.461	9.577	74	65	1.000	0.958	0.321	0.713	0.297
9.577	9.693	79	68	1.000	0.961	0.358	0.725	0.323
9.716	9.774	74	57	1.000	0.695	0.209	0.701	0.088
9.704	9.809	77	58	1.000	0.907	0.313	0.604	0.289
9.820	9.913	76	66	1.000	0.970	0.397	0.643	0.325
9.913	10.029	74	67	1.000	0.964	0.374	0.687	0.332
10.041	10.134	73	70	1.000	0.907	0.320	0.788	0.339
10.157	10.250	71	55	1.000	0.962	0.180	0.692	0.361
10.262	10.355	69	66	1.000	0.938	0.325	0.715	0.284
10.366	10.471	71	67	1.000	0.964	0.422	0.635	0.367
10.494	10.575	73	57	1.000	0.939	0.186	0.717	0.329
10.575	10.691	71	67	1.000	0.966	0.382	0.676	0.265
10.691	10.784	69	62	1.000	0.938	0.329	0.661	0.341
10.796	10.889	73	72	1.000	0.908	0.407	0.728	0.212
10.912	10.993	69	62	1.000	0.750	0.277	0.711	0.167
10.900	11.005	76	61	1.000	0.912	0.339	0.633	0.273
11.016	11.109	74	73	1.000	0.970	0.441	0.715	0.330
11.132	11.225	73	76	1.000	0.971	0.425	0.787	0.327
11.330	11.423	69	70	1.000	0.931	0.375	0.742	0.277
11.434	11.539	67	65	1.000	0.961	0.310	0.718	0.287
11.562	11.666	65	66	1.000	0.935	0.374	0.669	0.249
11.678	11.794	69	65	1.000	0.917	0.356	0.669	0.240
11.794	11.910	67	65	1.000	0.934	0.312	0.714	0.232
11.899	12.003	65	58	1.000	0.821	0.227	0.697	0.188
12.096	12.212	62	67	1.000	0.947	0.331	0.728	0.357
12.235	12.479	57	64	1.000	0.953	0.320	0.700	0.198
12.502	12.700	74	62	1.000	0.914	0.249	0.727	0.164
12.723	12.978	73	60	1.000	0.949	0.215	0.731	0.225
12.978	13.338	62	67	1.000	0.946	0.320	0.737	0.309
