onset	offset	note	velocity	probability	sustain	articulation	power	release
0.091	0.115	65	46	1.000	0.887	0.357	0.370	0.017
0.091	0.115	71	37	1.000	0.718	0.235	0.363	0.005
0.138	0.300	69	81	1.000	0.992	0.715	0.568	0.220
0.440	0.451	74	58	1.000	0.315	0.277	0.643	0.014
0.428	0.672	62	90	1.000	0.997	0.797	0.623	0.519
0.672	0.858	65	73	1.000	0.967	0.598	0.555	0.275
0.869	1.055	69	58	1.000	0.948	0.279	0.637	0.157
1.101	1.392	74	89	1.000	0.976	0.652	0.757	0.438
1.543	1.717	77	84	1.000	0.991	0.689	0.646	0.418
1.752	1.972	76	85	1.000	0.999	0.699	0.649	0.313
2.019	2.135	79	70	1.000	0.959	0.460	0.649	0.389
2.135	2.251	77	86	1.000	0.999	0.743	0.620	0.514
2.239	2.355	76	79	1.000	0.997	0.632	0.625	0.657
2.355	2.448	74	67	1.000	0.999	0.418	0.641	0.822
2.448	2.692	73	89	1.000	0.989	0.737	0.679	0.520
2.680	2.831	69	76	1.000	0.989	0.602	0.605	0.419
2.843	3.052	64	84	1.000	0.994	0.660	0.666	0.401
3.063	3.087	73	64	1.000	0.775	0.367	0.655	0.003
3.063	3.098	62	74	1.000	0.969	0.475	0.702	0.003
3.098	3.307	62	56	1.000	0.995	0.329	0.563	0.334
3.528	3.737	69	75	1.000	0.991	0.572	0.622	0.730
3.737	4.016	76	95	1.000	0.998	0.831	0.675	0.488
3.992	4.155	77	68	1.000	0.958	0.487	0.587	0.546
4.178	4.364	79	75	1.000	0.983	0.536	0.655	0.494
4.387	4.654	77	93	1.000	1.000	0.903	0.569	0.330
4.642	4.793	81	77	1.000	0.995	0.495	0.718	0.462
4.782	4.875	79	79	1.000	0.998	0.568	0.689	0.671
4.863	4.956	77	84	1.000	0.997	0.694	0.644	0.621
4.956	5.072	76	67	1.000	0.999	0.333	0.729	0.631
5.060	5.269	74	79	1.000	0.999	0.650	0.595	0.424
5.455	5.594	77	59	1.000	0.813	0.391	0.553	0.091
5.444	5.618	65	74	1.000	0.989	0.560	0.616	0.276
5.653	5.687	81	66	1.000	0.853	0.380	0.669	0.016
5.641	5.850	62	72	1.000	0.952	0.535	0.606	0.121
5.908	6.024	77	78	1.000	0.992	0.686	0.548	0.510
6.024	6.059	80	60	1.000	0.623	0.256	0.703	0.008
6.012	6.129	76	81	1.000	0.998	0.611	0.666	0.619
6.129	6.233	74	62	1.000	0.991	0.401	0.589	0.527
6.245	6.349	77	85	1.000	0.998	0.721	0.623	0.659
6.326	6.477	82	73	1.000	0.972	0.517	0.635	0.286
6.488	6.593	81	65	1.000	0.962	0.404	0.622	0.374
6.605	6.697	79	75	1.000	0.992	0.545	0.646	0.369
6.721	6.814	77	73	1.000	0.993	0.515	0.646	0.596
6.814	6.918	76	74	1.000	0.998	0.511	0.665	0.656
6.906	7.022	74	82	1.000	0.998	0.659	0.638	0.702
7.011	7.127	72	79	1.000	0.989	0.585	0.668	0.367
7.139	7.220	74	89	1.000	0.985	0.727	0.675	0.531
7.231	7.301	76	75	1.000	0.876	0.620	0.567	0.219
7.336	7.429	74	90	1.000	0.999	0.804	0.618	0.768
7.440	7.545	72	83	1.000	0.990	0.608	0.701	0.674
7.545	7.638	76	70	1.000	0.941	0.383	0.723	0.300
7.615	7.777	81	69	1.000	0.977	0.387	0.712	0.206
7.800	7.905	79	71	1.000	0.964	0.352	0.780	0.393
7.928	8.021	77	79	1.000	0.997	0.584	0.664	0.654
8.033	8.137	76	85	1.000	1.000	0.677	0.674	0.667
8.125	8.230	74	77	1.000	0.986	0.566	0.660	0.628
8.230	8.346	72	89	1.000	0.997	0.737	0.673	0.683
8.346	8.439	70	84	1.000	0.991	0.617	0.710	0.619
8.451	8.543	72	85	1.000	0.999	0.663	0.678	0.730
8.555	8.671	74	86	1.000	0.994	0.685	0.672	0.774
8.660	8.764	72	87	1.000	1.000	0.704	0.677	0.826
8.752	8.857	70	91	1.000	0.999	0.804	0.639	0.686
8.868	8.961	74	86	1.000	0.946	0.668	0.689	0.678
8.961	9.112	79	96	1.000	0.994	0.843	0.670	0.480
9.112	9.217	77	84	1.000	0.999	0.708	0.620	0.837
9.217	9.321	76	96	1.000	1.000	0.812	0.701	0.822
9.310	9.426	74	83	1.000	0.999	0.707	0.608	0.624
9.437	9.542	73	92	1.000	0.998	0.693	0.766	0.788
9.530	9.635	71	87	1.000	0.997	0.664	0.709	0.754
9.635	9.739	69	83	1.000	0.997	0.597	0.719	0.671
9.739	9.844	71	86	1.000	0.997	0.697	0.660	0.622
9.855	9.960	73	94	1.000	0.998	0.754	0.739	0.676
9.948	10.041	71	95	1.000	1.000	0.872	0.636	0.845
10.053	10.146	69	94	1.000	0.999	0.835	0.661	0.707
10.146	10.262	73	71	1.000	1.000	0.438	0.689	0.748
10.262	10.378	76	88	1.000	0.997	0.779	0.621	0.631
10.378	10.494	74	92	1.000	0.998	0.814	0.651	0.666
10.482	10.610	73	82	1.000	1.000	0.675	0.619	0.697
10.598	10.691	71	79	1.000	0.998	0.680	0.578	0.706
10.691	10.784	69	87	1.000	1.000	0.779	0.596	0.797
10.784	10.900	67	88	1.000	0.998	0.714	0.680	0.839
10.889	11.051	65	86	1.000	0.999	0.741	0.627	0.750
11.040	11.156	69	87	1.000	1.000	0.772	0.602	0.810
11.144	11.260	67	88	1.000	1.000	0.779	0.608	0.696
11.249	11.365	65	88	1.000	0.999	0.744	0.642	0.741
11.341	11.458	64	80	1.000	1.000	0.552	0.714	0.804
11.446	11.574	62	87	1.000	0.999	0.713	0.664	0.622
11.585	11.678	57	91	1.000	0.984	0.771	0.673	0.260
11.841	12.050	74	91	1.000	0.998	0.882	0.564	0.350
12.050	12.201	74	60	1.000	0.832	0.443	0.510	0.117
12.351	13.002	62	61	1.000	1.000	0.340	0.632	0.553
13.025	13.083	64	70	1.000	0.907	0.481	0.625	0.498
