onset	offset	note	velocity	probability	sustain	articulation	power	release
0.115	0.265	69	77	1.000	0.997	0.620	0.607	0.609
0.463	0.486	69	64	1.000	0.611	0.350	0.674	0.040
0.463	0.730	62	87	1.000	0.998	0.716	0.658	0.683
0.730	0.950	65	83	1.000	0.985	0.695	0.622	0.316
0.974	1.171	69	84	1.000	0.995	0.642	0.681	0.327
1.485	1.728	76	69	1.000	0.986	0.414	0.676	0.424
1.740	1.949	77	61	1.000	0.981	0.363	0.612	0.236
1.984	2.274	76	65	1.000	0.999	0.370	0.665	0.301
2.262	2.367	79	57	1.000	0.970	0.304	0.596	0.231
2.379	2.495	77	65	1.000	0.989	0.395	0.643	0.379
2.483	2.576	76	73	1.000	0.991	0.538	0.625	0.452
2.576	2.692	74	78	1.000	0.980	0.537	0.698	0.437
2.704	2.947	73	62	1.000	0.983	0.269	0.714	0.341
2.959	3.122	69	62	1.000	0.957	0.335	0.643	0.204
3.168	3.423	64	60	1.000	0.967	0.272	0.681	0.306
3.447	3.690	61	72	1.000	0.987	0.411	0.732	0.245
3.702	3.946	64	58	1.000	0.971	0.283	0.636	0.257
3.946	4.201	69	62	1.000	0.967	0.334	0.654	0.133
4.422	4.654	77	52	1.000	0.946	0.207	0.626	0.265
4.677	4.898	79	55	1.000	0.940	0.244	0.629	0.264
4.875	5.177	77	59	1.000	0.976	0.401	0.535	0.200
5.188	5.293	81	57	1.000	0.891	0.277	0.628	0.249
5.304	5.397	79	63	1.000	0.958	0.340	0.653	0.323
5.409	5.513	77	68	1.000	0.944	0.431	0.652	0.314
5.513	5.618	76	67	1.000	0.960	0.336	0.726	0.289
5.629	5.850	74	55	1.000	0.950	0.250	0.631	0.225
5.873	6.070	69	61	1.000	0.925	0.321	0.641	0.273
6.082	6.349	65	59	1.000	0.964	0.308	0.629	0.259
6.372	6.570	62	61	1.000	0.913	0.207	0.756	0.244
6.581	6.709	77	61	1.000	0.981	0.356	0.616	0.331
6.721	6.825	76	64	1.000	0.889	0.346	0.672	0.344
6.837	6.953	74	60	1.000	0.924	0.319	0.638	0.369
6.953	7.081	77	62	1.000	0.975	0.376	0.601	0.274
7.069	7.208	82	57	1.000	0.917	0.286	0.613	0.302
7.220	7.324	81	72	1.000	0.969	0.358	0.777	0.315
7.336	7.440	79	62	1.000	0.980	0.308	0.673	0.371
7.452	7.557	77	53	1.000	0.881	0.278	0.570	0.359
7.557	7.661	76	62	1.000	0.978	0.310	0.679	0.327
7.661	7.766	74	69	1.000	0.983	0.462	0.633	0.401
7.777	7.893	72	68	1.000	0.959	0.396	0.684	0.242
7.882	8.009	74	58	1.000	0.961	0.298	0.619	0.223
8.009	8.102	76	60	1.000	0.955	0.335	0.619	0.267
8.102	8.218	74	66	1.000	0.986	0.421	0.626	0.325
8.230	8.311	72	60	1.000	0.934	0.267	0.682	0.376
8.323	8.439	76	59	1.000	0.973	0.343	0.588	0.302
8.439	8.567	81	64	1.000	0.975	0.330	0.692	0.334
8.567	8.694	79	60	1.000	0.948	0.345	0.611	0.356
8.694	8.799	77	62	1.000	0.966	0.405	0.575	0.414
8.799	8.927	76	66	1.000	0.991	0.417	0.630	0.326
8.915	9.031	74	66	1.000	0.942	0.396	0.652	0.274
9.031	9.147	72	62	1.000	0.990	0.337	0.647	0.341
9.147	9.240	70	67	1.000	0.977	0.400	0.659	0.366
9.263	9.368	72	69	1.000	0.968	0.398	0.694	0.258
9.379	9.472	74	58	1.000	0.983	0.321	0.606	0.295
9.472	9.577	72	72	1.000	0.992	0.449	0.693	0.453
9.588	9.693	70	73	1.000	0.949	0.370	0.782	0.396
9.693	9.797	74	67	1.000	0.957	0.430	0.631	0.328
9.809	9.937	79	61	1.000	0.968	0.301	0.663	0.274
9.948	10.053	77	61	1.000	0.967	0.337	0.636	0.318
10.088	10.157	76	58	1.000	0.915	0.259	0.665	0.312
10.169	10.285	74	64	1.000	0.981	0.316	0.695	0.352
10.285	10.378	73	73	1.000	0.922	0.356	0.801	0.427
10.389	10.494	71	67	1.000	0.983	0.385	0.686	0.401
10.505	10.587	69	74	1.000	0.949	0.456	0.720	0.253
10.598	10.714	71	68	1.000	0.982	0.443	0.632	0.295
10.714	10.819	73	65	1.000	0.977	0.407	0.627	0.294
10.831	10.935	71	65	1.000	0.952	0.379	0.652	0.357
10.935	11.040	69	67	1.000	0.942	0.363	0.698	0.293
11.028	11.144	73	73	1.000	0.989	0.449	0.706	0.417
11.144	11.260	76	59	1.000	0.841	0.349	0.582	0.196
11.272	11.365	74	60	1.000	0.978	0.343	0.617	0.288
11.365	11.469	73	70	1.000	0.974	0.374	0.729	0.459
11.469	11.574	71	65	1.000	0.957	0.405	0.635	0.295
11.597	11.690	69	61	1.000	0.971	0.298	0.667	0.316
11.701	11.806	67	64	1.000	0.985	0.367	0.644	0.371
11.817	11.934	65	67	1.000	0.972	0.412	0.651	0.277
11.945	12.015	69	58	1.000	0.918	0.290	0.638	0.409
12.038	12.119	67	61	1.000	0.982	0.376	0.596	0.331
12.119	12.212	65	66	1.000	0.973	0.408	0.640	0.321
12.224	12.317	64	64	1.000	0.969	0.350	0.665	0.304
12.328	12.456	62	57	1.000	0.954	0.232	0.677	0.197
12.491	12.630	57	63	1.000	0.883	0.322	0.677	0.160
12.769	13.013	74	55	1.000	0.973	0.212	0.657	0.166
13.036	13.408	73	69	1.000	0.959	0.365	0.726	0.153
13.454	13.466	74	51	1.000	0.455	0.193	0.614	0.003
13.431	13.826	62	65	1.000	0.992	0.382	0.649	0.318
